<?xml version="1.0" encoding="iso-8859-1"?>
<!-- Generator: Adobe Illustrator 22.0.1, SVG Export Plug-In . SVG Version: 6.00 Build 0)  -->
<!DOCTYPE svg PUBLIC "-//W3C//DTD SVG 1.1//EN" "http://www.w3.org/Graphics/SVG/1.1/DTD/svg11.dtd">
<svg version="1.1" id="Layer_1" xmlns="http://www.w3.org/2000/svg" xmlns:xlink="http://www.w3.org/1999/xlink" x="0px" y="0px"
	 viewBox="0 0 109.477 63.543" style="enable-background:new 0 0 109.477 63.543;" xml:space="preserve">
<g id="original">
	<path style="fill:#010101;" d="M109.477,61.859c-3.982,1.013-6.444,0.044-8.654-3.275c-4.96-7.431-10.435-14.522-15.718-21.744
		c-0.681-0.934-1.388-1.851-2.27-3.013c-6.252,8.435-12.496,16.469-18.355,24.826c-2.096,2.986-4.296,4.288-8.208,3.231
		l23.507-31.55L57.895,1.842c3.764-0.734,6.366-0.358,8.671,3.013c5.091,7.44,10.706,14.522,16.303,22.014
		c5.632-7.466,11.177-14.557,16.417-21.927c2.104-2.986,4.366-4.122,8.147-3.021c-2.864,3.799-5.667,7.536-8.488,11.247
		c-3.807,5.004-7.545,10.068-11.492,14.967c-1.406,1.746-1.179,2.882,0.079,4.532C94.833,42.264,102.046,51.957,109.477,61.859z"/>
	<path style="fill:#010101;" d="M0.026,29.811c0.629-3.152,1.048-6.366,1.921-9.457C7.187,1.641,28.668-6.14,43.426,5.457
		c8.645,6.802,10.793,16.391,10.365,27.201H5.065C4.331,52.053,18.294,63.763,36.091,57.79c6.244-2.096,9.92-6.986,11.762-13.098
		c0.934-3.065,2.48-3.545,5.362-2.672c-1.476,7.65-4.82,14.042-11.806,18.041c-10.479,5.99-25.437,4.052-33.305-4.27
		C3.458,50.9,1.484,44.814,0.611,38.238C0.48,37.19,0.21,36.16,0,35.121C0.017,33.351,0.026,31.581,0.026,29.811z M5.152,28.51
		h44.037c-0.288-14.024-9.02-23.988-20.958-24.075C15.133,4.33,5.72,14.058,5.152,28.51z"/>
</g>
</svg>
