<?xml version="1.0" encoding="iso-8859-1"?>
<!-- Generator: Adobe Illustrator 22.0.1, SVG Export Plug-In . SVG Version: 6.00 Build 0)  -->
<!DOCTYPE svg PUBLIC "-//W3C//DTD SVG 1.1//EN" "http://www.w3.org/Graphics/SVG/1.1/DTD/svg11.dtd">
<svg version="1.1" id="Layer_1" xmlns="http://www.w3.org/2000/svg" xmlns:xlink="http://www.w3.org/1999/xlink" x="0px" y="0px"
	 viewBox="0 0 109.282 108.333" style="enable-background:new 0 0 109.282 108.333;" xml:space="preserve">
<path style="fill:#51AA47;" d="M71.364,27.689c-2.316-7.211-6.031-13.594-11.266-19.086c-1.323-1.389-2.795-2.662-3.718-4.39
	c-0.583-1.094-1.139-2.203-1.708-3.304L54.311,0l-0.101,0.358c-0.047,1.797-1.065,3.014-2.331,4.152
	c-1.427,1.279-2.754,2.668-4.123,4.01l-4.212,5.54l-3.406,6.263l-2.278,6.15l-0.068,0.095c-1.253,4.117-1.871,8.351-2.175,12.625
	c-0.115,1.607,0.017,3.237,0.107,4.852c0.129,2.309,0.53,4.578,1.131,6.813c2.185,8.117,6.621,14.849,12.686,20.57
	c1.126,1.063,2.344,2.03,3.519,3.04l0.52,1.786l0.484,2.771l0.231,2.893c-0.003,0.587-0.027,1.177,0.008,1.762
	c0.01,0.15,0.205,0.289,0.316,0.433l0.982,0.345l1.022,0.398l-0.175-2.571l-0.008-2.533l0.353-3.858l0.256-0.84l0.734-1.299
	c0.905-0.728,1.876-1.389,2.7-2.2c1.492-1.465,2.98-2.95,4.315-4.556c1.732-2.082,3.222-4.355,4.42-6.792
	c0.8-1.63,1.554-3.294,2.177-4.997c0.55-1.501,0.89-3.08,1.323-4.625l0.114-0.334c0.894-4.17,1.044-8.382,0.716-12.621
	C73.284,34.216,72.481,30.919,71.364,27.689z M53.665,72.404c0.137-0.686,0.307-1.368,0.43-2.056
	C53.971,71.036,53.802,71.718,53.665,72.404z M56.704,72.877l-0.575-1.259L56.704,72.877l0.844,0.721L56.704,72.877z M92.418,88.822
	c-0.735-1.408-1.813-2.477-3.237-3.179c-1.194-0.587-2.477-0.845-3.797-0.882c-0.989-0.028-1.982,0.022-2.972,0.035
	c-0.88,0.011-1.76,0.026-2.64,0.018c-1.034-0.011-2.069-0.042-3.103-0.071c-0.172-0.005-0.294,0.029-0.374,0.204
	c-0.125,0.271-0.274,0.533-0.428,0.83l0.173,0.055c0.513,0.091,1.029,0.168,1.54,0.27c0.656,0.131,0.952,0.508,0.982,1.061
	c0.044,0.788,0.062,1.578,0.06,2.368c-0.013,3.125-0.036,6.251-0.059,9.375c-0.002,0.206-0.005,0.422-0.061,0.615
	c-0.065,0.224-0.135,0.514-0.302,0.624c-0.289,0.192-0.647,0.322-0.992,0.378c-0.499,0.082-0.583,0.104-0.738,0.595l-0.068,0.245
	c-0.075,0.268-0.035,0.32,0.245,0.323c1.603,0.018,3.205,0.052,4.806,0.047c1.461-0.005,2.923,0.084,4.379-0.191
	c1.376-0.259,2.66-0.712,3.833-1.48c1.521-0.997,2.615-2.329,3.192-4.068c0.466-1.404,0.57-2.837,0.412-4.306
	C93.158,90.676,92.886,89.721,92.418,88.822z M89.61,97.415c-0.857,1.596-2.136,2.661-3.964,2.942
	c-1.145,0.175-2.291,0.125-3.382-0.309c-0.691-0.274-0.948-0.871-0.969-1.576c-0.02-0.691-0.028-1.383-0.029-2.074
	c-0.004-2.432-0.004-4.863,0-7.294c0.002-0.766,0.015-1.533,0.028-2.3c0.009-0.539,0.122-0.72,0.647-0.763
	c2.309-0.194,4.512,0.055,6.342,1.68c1.131,1.005,1.775,2.287,2.043,3.759c0.111,0.614,0.145,1.242,0.214,1.864
	C90.482,94.765,90.29,96.148,89.61,97.415z M108.989,94.781c-0.455-1.108-1.318-1.803-2.402-2.248
	c-0.37-0.152-0.752-0.277-1.151-0.425l0.14-0.089c0.431-0.277,0.912-0.5,1.283-0.84c0.904-0.828,1.279-1.87,1.103-3.107
	c-0.167-1.177-0.754-2.04-1.803-2.601c-0.952-0.507-1.978-0.692-3.04-0.691c-1.838,0.002-3.676,0.029-5.514,0.033
	c-0.633,0.001-1.267-0.046-1.9-0.055c-0.123-0.002-0.305,0.029-0.358,0.111c-0.145,0.222-0.241,0.479-0.344,0.726
	c-0.06,0.144-0.001,0.223,0.164,0.245c0.442,0.06,0.883,0.136,1.326,0.202c0.612,0.092,0.908,0.41,0.945,1.026l0.008,0.366
	c0.001,1.917,0.007,3.833-0.001,5.75c-0.01,1.913-0.031,3.828-0.054,5.742c-0.003,0.241-0.036,0.483-0.07,0.722
	c-0.052,0.361-0.245,0.61-0.615,0.688l-1.047,0.206c-0.124,0.025-0.302,0.021-0.353,0.098c-0.192,0.287-0.347,0.601-0.326,0.98
	l0.108,0.029l3.516,0.086l0.705-0.003c1.217-0.014,2.435,0.01,3.65-0.052c1.315-0.066,2.551-0.456,3.693-1.128
	c1.216-0.716,2.152-1.66,2.484-3.079C109.35,96.568,109.351,95.656,108.989,94.781L108.989,94.781z M100.057,86.615
	c0.005-0.385,0.175-0.552,0.558-0.562c0.942-0.026,1.878-0.02,2.787,0.304c1.176,0.42,1.899,1.434,1.886,2.673
	c-0.006,0.476,0.001,0.947-0.174,1.404c-0.346,0.9-1.009,1.375-1.951,1.468c-0.491,0.05-0.986,0.055-1.424,0.078l-1.46-0.064
	c-0.194-0.007-0.278-0.092-0.277-0.292L100.057,86.615L100.057,86.615z M106.11,98.617c-0.471,1.024-1.328,1.562-2.401,1.749
	c-0.858,0.149-1.724,0.106-2.572-0.113c-0.628-0.161-0.884-0.665-1.009-1.225c-0.084-0.374-0.07-0.82-0.077-1.21
	c-0.012-0.601-0.003-1.849-0.003-1.849h-0.012c0-0.889,0.003-1.66-0.003-2.513c-0.001-0.184,0.03-0.276,0.255-0.269
	c0.799,0.024,1.6,0.037,2.399,0.068c0.714,0.028,1.383,0.239,2.012,0.578c0.957,0.516,1.533,1.306,1.692,2.391
	C106.51,97.048,106.459,97.858,106.11,98.617L106.11,98.617z M18.425,99.576l0.017-4.836c0.003-0.728-0.09-1.441-0.328-2.131
	c-0.657-1.901-2.47-2.766-4.357-2.084c-0.858,0.31-1.628,0.781-2.362,1.315c-0.428,0.311-0.428,0.311-0.737-0.133
	c-0.876-1.256-2.127-1.685-3.584-1.222c-0.942,0.299-1.765,0.81-2.546,1.404c-0.073,0.055-0.22,0.117-0.263,0.084
	c-0.073-0.054-0.124-0.183-0.122-0.28l0.053-0.859c0.004-0.181-0.03-0.362-0.048-0.551c-0.352,0.122-0.633,0.244-0.928,0.315
	c-0.91,0.222-1.826,0.427-2.741,0.636c-0.221,0.051-0.455,0.117-0.477,0.372c-0.022,0.25,0.219,0.292,0.406,0.366
	c0.393,0.158,0.784,0.326,1.172,0.497c0.326,0.144,0.448,0.405,0.446,0.755c-0.006,1.499,0.004,2.996-0.005,4.494
	c-0.004,0.609-0.032,1.218-0.06,1.827c-0.025,0.54-0.209,0.766-0.732,0.902c-0.277,0.073-0.559,0.122-0.839,0.188
	c-0.061,0.014-0.166,0.053-0.167,0.084c-0.012,0.264-0.026,0.535,0.019,0.792c0.009,0.046,0.288,0.046,0.443,0.064l0.104-0.006
	c1.078-0.016,2.156-0.033,3.235-0.044c0.572-0.006,1.143-0.001,1.764-0.001l0.067-0.863c-0.356-0.065-0.673-0.114-0.986-0.182
	c-0.488-0.107-0.696-0.366-0.709-0.858L4.15,98.913c-0.005-1.83-0.012-3.658-0.012-5.488c0-0.266,0.11-0.477,0.344-0.636
	c0.495-0.334,1.018-0.6,1.597-0.749c1.22-0.312,2.279,0.122,2.748,1.16c0.149,0.327,0.265,0.689,0.298,1.045
	c0.173,1.834,0.098,3.67-0.006,5.504c-0.022,0.396-0.208,0.595-0.599,0.692l-0.918,0.194c-0.074,0.019-0.181-0.031-0.187,0.03
	c-0.02,0.253-0.009,0.642-0.009,0.642h0.219l2.795,0.092c0.766-0.002,1.532,0.091,2.297,0.11c0.137,0.003,0.259,0.023,0.267-0.135
	c0.012-0.251,0.002-0.487-0.01-0.737l-0.146-0.026l-0.787-0.177c-0.531-0.125-0.714-0.327-0.716-0.865
	c-0.006-1.324,0.012-2.648,0-3.971c-0.006-0.757-0.036-1.514-0.084-2.269c-0.013-0.201,0.018-0.333,0.178-0.446
	c0.471-0.336,0.981-0.595,1.54-0.743c1.721-0.454,3.13,0.49,3.219,2.264c0.087,1.711,0.051,3.429,0.037,5.144
	c-0.004,0.597-0.202,0.777-0.79,0.937l-0.203,0.052c-0.602,0.144-0.597,0.144-0.561,0.784c0.012,0.2,0.067,0.252,0.28,0.246
	c1.227-0.028,2.453-0.035,3.68-0.045c0.502-0.004,1.003,0,1.549,0l0.111-0.832c-0.479-0.127-0.921-0.221-1.348-0.361
	C18.557,100.202,18.423,99.974,18.425,99.576L18.425,99.576z M60.663,92.246c0.505-0.469,0.509-1.088,0.367-1.775
	c-0.4,0.419-0.849,0.612-1.36,0.648c-0.686,0.049-1.359-0.011-1.998-0.284c-1.727-0.742-3.428-0.689-5.123,0.125
	c-1.426,0.683-2.303,1.748-2.391,3.362c-0.056,1.034,0.138,2.014,0.828,2.836c0.414,0.493,0.945,0.812,1.543,1.033
	c0.258,0.095,0.278,0.218,0.061,0.382c-0.158,0.122-0.326,0.232-0.495,0.338c-0.361,0.227-0.725,0.451-1.09,0.671
	c-0.214,0.13-0.287,0.295-0.217,0.549c0.205,0.745,0.735,1.176,1.396,1.49l0.241,0.168L52.215,102
	c-0.648,0.526-1.323,1.022-1.943,1.58c-0.521,0.469-0.689,1.097-0.532,1.79c0.318,1.383,1.235,2.239,2.536,2.632
	c2.274,0.688,4.41,0.294,6.357-1.054c1.154-0.8,1.983-1.84,2.234-3.272c0.282-1.609-0.612-3.005-2.212-3.294
	c-1.058-0.192-2.142-0.247-3.213-0.37c-0.5-0.057-1.007-0.091-1.493-0.205c-0.414-0.098-0.619-0.435-0.581-0.764
	c0.038-0.324,0.382-0.625,0.776-0.656c0.793-0.064,1.571-0.188,2.302-0.522c1.937-0.886,2.836-2.437,2.611-4.525
	c-0.029-0.281-0.093-0.559-0.151-0.886C59.526,92.556,60.16,92.713,60.663,92.246z M54.784,102.045
	c0.788,0.023,1.685,0.072,2.551,0.326c0.762,0.222,1.389,0.612,1.574,1.463c0.223,1.028-0.271,2.051-1.267,2.601
	c-0.932,0.514-1.944,0.557-2.971,0.451c-0.879-0.091-1.669-0.395-2.303-1.044c-0.834-0.855-0.839-2.038-0.004-2.89
	C53.112,102.19,53.512,102.033,54.784,102.045z M56.756,95.853c-0.459,1.468-1.795,1.671-2.842,1.202
	c-0.892-0.399-1.281-1.186-1.484-2.083c-0.079-0.345-0.098-0.704-0.144-1.057c0.019-0.506,0.102-0.992,0.32-1.447
	c0.668-1.403,2.309-1.319,3.217-0.684c0.39,0.272,0.661,0.642,0.831,1.081C57.031,93.846,57.069,94.847,56.756,95.853z
	 M48.422,100.534c-0.316-0.051-0.633-0.117-0.94-0.21c-0.541-0.165-0.607-0.267-0.613-0.839c-0.016-1.594-0.027-3.188-0.044-4.781
	c-0.009-0.717-0.094-1.424-0.314-2.109c-0.578-1.806-2.349-2.775-4.121-2.242c-0.982,0.296-1.825,0.847-2.61,1.493l-0.286,0.22
	l0.001-0.294c0.019-0.339,0.055-0.678,0.052-1.017c-0.002-0.177-0.069-0.355-0.102-0.511c-0.67,0.202-1.27,0.405-1.883,0.559
	c-0.615,0.155-1.242,0.26-1.863,0.386c-0.309,0.062-0.535,0.249-0.53,0.462c0.008,0.3,0.256,0.358,0.473,0.447
	c0.393,0.161,0.785,0.324,1.174,0.496c0.278,0.124,0.39,0.353,0.388,0.651c-0.02,2.071-0.032,4.144-0.062,6.216
	c-0.009,0.655-0.174,0.827-0.818,0.971l-0.281,0.056c-0.596,0.102-0.613,0.126-0.572,0.755l0.004,0.104
	c-0.007,0.242,0.099,0.32,0.348,0.318c1.583-0.019,3.167-0.028,4.75-0.021c0.679,0.003,0.752-0.051,0.737-0.748l-0.032-0.3
	c-0.388-0.065-0.759-0.112-1.122-0.192c-0.38-0.084-0.516-0.24-0.551-0.626c-0.033-0.353-0.044-0.712-0.047-1.067
	c-0.018-1.629-0.032-3.257-0.04-4.885c-0.002-0.41,0.074-0.791,0.451-1.055c0.572-0.399,1.198-0.631,1.89-0.678
	c1.412-0.097,2.486,0.74,2.562,2.148c0.094,1.737,0.066,3.48,0.088,5.221c0.002,0.13-0.021,0.261-0.039,0.39
	c-0.034,0.254-0.158,0.446-0.416,0.511c-0.252,0.066-0.507,0.125-0.764,0.164c-0.383,0.057-0.391,0.054-0.421,0.441l0.01,0.261
	c0.045,0.45,0.046,0.437,0.502,0.432c1.532-0.012,3.062-0.02,4.593-0.019c0.64,0.002,0.686-0.028,0.691-0.688l-0.002-0.157
	C48.671,100.63,48.596,100.561,48.422,100.534z M69.815,90.463c-1.605-0.392-3.128-0.101-4.574,0.647
	c-1.405,0.727-2.345,1.85-2.702,3.401c-0.361,1.568-0.189,3.098,0.504,4.554c0.451,0.945,1.145,1.677,2.089,2.152
	c2.211,1.114,4.916,0.608,6.65-0.881c1.369-1.175,1.871-2.739,1.902-4.676c-0.019-0.194-0.037-0.567-0.089-0.937
	C73.304,92.614,71.844,90.959,69.815,90.463z M71.031,98.606c-0.426,1.677-1.877,2.423-3.513,1.846
	c-0.835-0.294-1.46-0.855-1.879-1.613c-0.966-1.743-1.152-3.597-0.602-5.498c0.366-1.267,1.409-1.959,2.649-1.872
	c1.108,0.077,1.96,0.609,2.586,1.511c0.659,0.952,0.913,2.034,0.981,3.171c0.012,0.182,0.002,0.365,0.002,0.548l0.078,0.009
	C71.233,97.341,71.187,97.987,71.031,98.606z M29.438,90.435c-1.689-0.386-3.271-0.004-4.737,0.854
	c-1.267,0.742-2.087,1.85-2.401,3.298c-0.294,1.353-0.174,2.682,0.305,3.978c0.292,0.79,0.734,1.484,1.382,2.026
	c1.365,1.139,2.961,1.428,4.659,1.11c1.437-0.27,2.7-0.908,3.618-2.103c0.859-1.117,1.186-2.4,1.22-3.79
	c-0.051-0.44-0.063-0.889-0.157-1.318C32.864,92.347,31.61,90.931,29.438,90.435z M30.815,98.6
	c-0.412,1.669-1.886,2.433-3.511,1.856c-1.043-0.371-1.723-1.135-2.152-2.114c-0.688-1.573-0.829-3.211-0.383-4.87
	c0.342-1.269,1.371-2.204,2.946-1.98c0.967,0.137,1.721,0.631,2.283,1.416c0.76,1.059,1.009,2.272,1.044,3.547v0.261l0.064,0.01
	C31.013,97.352,30.967,97.988,30.815,98.6z"/>
</svg>
