<?xml version="1.0" encoding="iso-8859-1"?>
<!-- Generator: Adobe Illustrator 22.0.1, SVG Export Plug-In . SVG Version: 6.00 Build 0)  -->
<!DOCTYPE svg PUBLIC "-//W3C//DTD SVG 1.1//EN" "http://www.w3.org/Graphics/SVG/1.1/DTD/svg11.dtd">
<svg version="1.1" id="Layer_1" xmlns="http://www.w3.org/2000/svg" xmlns:xlink="http://www.w3.org/1999/xlink" x="0px" y="0px"
	 viewBox="0 0 132.355 81.061" style="enable-background:new 0 0 132.355 81.061;" xml:space="preserve">
<g>
	<path style="fill:#68A063;" d="M65.418,81.061c-0.437,0-0.871-0.115-1.254-0.335l-3.99-2.362c-0.596-0.333-0.305-0.451-0.109-0.519
		c0.795-0.278,0.956-0.341,1.804-0.823c0.089-0.051,0.206-0.033,0.297,0.021l3.066,1.819c0.111,0.06,0.268,0.06,0.37,0l11.953-6.899
		c0.111-0.063,0.183-0.191,0.183-0.323V57.846c0-0.138-0.072-0.26-0.185-0.329l-11.948-6.893c-0.111-0.066-0.257-0.066-0.368,0
		l-11.946,6.893c-0.116,0.066-0.189,0.194-0.189,0.326v13.793c0,0.132,0.072,0.257,0.186,0.32l3.273,1.891
		c1.777,0.889,2.863-0.159,2.863-1.212V59.022c0-0.194,0.153-0.344,0.347-0.344h1.514c0.188,0,0.344,0.15,0.344,0.344v13.619
		c0,2.37-1.293,3.731-3.539,3.731c-0.691,0-1.236,0-2.756-0.748l-3.136-1.807c-0.775-0.449-1.254-1.287-1.254-2.181V57.843
		c0-0.898,0.479-1.735,1.254-2.178l11.965-6.902c0.757-0.428,1.762-0.428,2.513,0l11.95,6.905c0.772,0.446,1.254,1.281,1.254,2.178
		v13.793c0,0.895-0.482,1.729-1.254,2.178l-11.95,6.902c-0.383,0.221-0.817,0.335-1.26,0.335"/>
	<path style="fill:#68A063;" d="M69.11,71.557c-5.23,0-6.326-2.401-6.326-4.414c0-0.191,0.154-0.344,0.346-0.344h1.544
		c0.171,0,0.314,0.124,0.341,0.293c0.233,1.573,0.928,2.367,4.09,2.367c2.519,0,3.59-0.569,3.59-1.905
		c0-0.769-0.305-1.34-4.219-1.723c-3.273-0.323-5.296-1.044-5.296-3.662c0-2.412,2.035-3.848,5.442-3.848
		c3.827,0,5.724,1.328,5.963,4.183c0.009,0.099-0.027,0.194-0.093,0.266c-0.066,0.069-0.159,0.111-0.254,0.111h-1.553
		c-0.162,0-0.302-0.114-0.335-0.269c-0.374-1.655-1.278-2.184-3.734-2.184c-2.75,0-3.07,0.957-3.07,1.675
		c0,0.871,0.377,1.125,4.087,1.616c3.674,0.488,5.418,1.176,5.418,3.758c0,2.603-2.172,4.096-5.96,4.096 M83.652,56.943h0.401
		c0.329,0,0.392-0.23,0.392-0.365c0-0.353-0.242-0.353-0.377-0.353h-0.413L83.652,56.943z M83.164,55.812h0.889
		c0.305,0,0.904,0,0.904,0.682c0,0.476-0.305,0.574-0.488,0.634c0.356,0.024,0.38,0.257,0.428,0.586
		c0.024,0.206,0.063,0.562,0.135,0.682h-0.548c-0.015-0.12-0.099-0.778-0.099-0.814c-0.036-0.147-0.087-0.218-0.269-0.218h-0.452
		V58.4h-0.5V55.812z M82.096,57.099c0,1.071,0.865,1.939,1.927,1.939c1.071,0,1.936-0.886,1.936-1.939
		c0-1.074-0.877-1.927-1.939-1.927c-1.047,0-1.927,0.841-1.927,1.924 M86.329,57.105c0,1.269-1.038,2.304-2.304,2.304
		c-1.257,0-2.304-1.023-2.304-2.304c0-1.304,1.071-2.304,2.304-2.304c1.242,0,2.301,1.002,2.301,2.304"/>
	<path style="fill:#333333;" d="M28.404,27.092c0-0.551-0.29-1.056-0.765-1.33l-12.673-7.291c-0.214-0.126-0.454-0.191-0.697-0.2
		h-0.131c-0.243,0.009-0.483,0.075-0.7,0.2L0.767,25.762C0.294,26.037,0,26.543,0,27.094l0.028,19.639
		c0,0.272,0.141,0.527,0.38,0.661c0.233,0.144,0.527,0.144,0.76,0l7.534-4.314c0.476-0.283,0.766-0.783,0.766-1.328v-9.175
		c0-0.548,0.29-1.053,0.764-1.325l3.207-1.847c0.238-0.138,0.5-0.206,0.766-0.206c0.262,0,0.53,0.068,0.761,0.206l3.206,1.847
		c0.475,0.272,0.766,0.778,0.766,1.325v9.174c0,0.545,0.294,1.047,0.767,1.328l7.529,4.311c0.236,0.141,0.53,0.141,0.766,0
		c0.232-0.135,0.379-0.389,0.379-0.661L28.404,27.092z M88.204,37.317c0,0.137-0.073,0.263-0.191,0.331l-4.353,2.509
		c-0.118,0.068-0.264,0.068-0.382,0l-4.353-2.509c-0.12-0.068-0.191-0.194-0.191-0.331v-5.025c0-0.137,0.072-0.263,0.188-0.332
		l4.35-2.513c0.12-0.069,0.266-0.069,0.386,0l4.353,2.513c0.12,0.069,0.191,0.195,0.191,0.332L88.204,37.317z M89.38,0.097
		c-0.238-0.132-0.527-0.129-0.761,0.008c-0.233,0.138-0.378,0.389-0.378,0.661v19.448c0,0.191-0.102,0.368-0.267,0.464
		c-0.165,0.096-0.369,0.096-0.536,0l-3.174-1.828c-0.473-0.273-1.055-0.273-1.529,0l-12.677,7.316
		c-0.474,0.272-0.766,0.778-0.766,1.322v14.637c0,0.548,0.292,1.05,0.766,1.325l12.677,7.321c0.473,0.272,1.056,0.272,1.531,0
		l12.677-7.324c0.473-0.275,0.766-0.778,0.766-1.325V5.644c0-0.555-0.302-1.066-0.787-1.337L89.38,0.097z M131.594,32.16
		c0.471-0.273,0.761-0.779,0.761-1.323V27.29c0-0.546-0.29-1.049-0.762-1.324l-12.596-7.312c-0.476-0.275-1.059-0.275-1.535,0
		l-12.674,7.315c-0.476,0.275-0.766,0.778-0.766,1.325v14.631c0,0.551,0.296,1.059,0.772,1.331l12.593,7.178
		c0.464,0.266,1.032,0.269,1.502,0.009l7.618-4.234c0.239-0.135,0.392-0.389,0.392-0.664c0-0.275-0.147-0.533-0.386-0.667
		l-12.752-7.318c-0.239-0.135-0.386-0.389-0.386-0.661v-4.59c0-0.274,0.144-0.527,0.383-0.663l3.967-2.289
		c0.236-0.138,0.527-0.138,0.763,0l3.97,2.289c0.236,0.135,0.383,0.389,0.383,0.661v3.608c0,0.272,0.147,0.527,0.383,0.664
		c0.236,0.135,0.53,0.135,0.766-0.003L131.594,32.16z"/>
	<path style="fill:#68A063;" d="M118.044,31.475c0.09-0.053,0.202-0.053,0.293,0l2.432,1.403c0.091,0.053,0.147,0.15,0.147,0.254
		v2.809c0,0.105-0.056,0.202-0.147,0.254l-2.432,1.403c-0.091,0.053-0.203,0.053-0.293,0l-2.431-1.403
		c-0.093-0.053-0.15-0.15-0.15-0.254v-2.809c0-0.105,0.054-0.202,0.147-0.254L118.044,31.475z"/>
	<g>
		<defs>
			<path id="SVGID_1_" d="M48.088,18.726l-12.605,7.276c-0.472,0.272-0.762,0.775-0.762,1.318v14.561
				c0,0.544,0.29,1.046,0.762,1.318l12.606,7.281c0.471,0.271,1.052,0.271,1.523,0l12.604-7.281c0.47-0.272,0.76-0.775,0.76-1.318
				V27.32c0-0.543-0.29-1.046-0.763-1.318L49.61,18.726c-0.236-0.136-0.5-0.203-0.763-0.203c-0.263,0-0.527,0.068-0.763,0.203"/>
		</defs>
		<use xlink:href="#SVGID_1_"  style="overflow:visible;fill:#68A063;"/>
		<clipPath id="SVGID_2_">
			<use xlink:href="#SVGID_1_"  style="overflow:visible;"/>
		</clipPath>
		<g transform="translate(-78.306 -164.016)" style="clip-path:url(#SVGID_2_);">
			<path style="fill:#68A063;" d="M154.019,188.782l-35.519-17.41l-18.212,37.152l35.518,17.411L154.019,188.782z"/>
		</g>
	</g>
</g>
</svg>
