<?xml version="1.0" encoding="iso-8859-1"?>
<!-- Generator: Adobe Illustrator 22.0.1, SVG Export Plug-In . SVG Version: 6.00 Build 0)  -->
<!DOCTYPE svg PUBLIC "-//W3C//DTD SVG 1.1//EN" "http://www.w3.org/Graphics/SVG/1.1/DTD/svg11.dtd">
<svg version="1.1" id="Layer_1" xmlns="http://www.w3.org/2000/svg" xmlns:xlink="http://www.w3.org/1999/xlink" x="0px" y="0px"
	 viewBox="0 0 109.217 98.195" style="enable-background:new 0 0 109.217 98.195;" xml:space="preserve">
<g>
	<path style="fill:#FFFFFF;" d="M0,48.921c0,8.248,8.054,15.948,20.752,20.288c-2.536,12.765-0.454,23.054,6.497,27.063
		c7.145,4.121,17.79,1.268,27.893-7.564c9.849,8.475,19.802,11.811,26.747,7.79c7.139-4.132,9.309-15.119,6.704-28.283
		c13.226-4.372,20.623-10.938,20.623-19.295c0-8.057-8.069-15.027-20.595-19.339C91.426,15.874,89.05,5.835,81.81,1.661
		c-6.979-4.025-17.049-0.517-27.042,8.18C44.372,0.61,34.402-2.208,27.17,1.978c-6.973,4.036-8.963,14.512-6.419,27.513
		C8.483,33.769,0,40.897,0,48.921z"/>
	<path style="fill:#54C1DE;" d="M85.968,33.864c-1.032-0.354-2.074-0.682-3.122-0.984c0.174-0.707,0.335-1.417,0.482-2.13
		c2.364-11.473,0.818-20.716-4.459-23.759c-5.06-2.918-13.335,0.124-21.693,7.397c-0.824,0.718-1.629,1.457-2.415,2.216
		c-0.527-0.505-1.062-1-1.607-1.484c-8.759-7.777-17.539-11.054-22.81-8.003c-5.055,2.926-6.552,11.616-4.424,22.489
		c0.212,1.077,0.451,2.148,0.717,3.213c-1.242,0.353-2.442,0.729-3.59,1.129C12.778,37.529,6.22,43.14,6.22,48.96
		c0,6.011,7.04,12.041,17.736,15.696c0.867,0.295,1.742,0.568,2.623,0.82c-0.286,1.147-0.54,2.302-0.762,3.463
		c-2.029,10.684-0.444,19.168,4.597,22.076c5.207,3.003,13.947-0.084,22.458-7.523c0.673-0.588,1.348-1.212,2.024-1.866
		c0.852,0.822,1.726,1.619,2.622,2.392c8.244,7.094,16.385,9.958,21.422,7.042c5.203-3.012,6.893-12.125,4.698-23.214
		c-0.167-0.847-0.363-1.712-0.582-2.593c0.614-0.181,1.216-0.368,1.804-0.563c11.12-3.684,18.354-9.64,18.354-15.732
		C103.214,43.119,96.444,37.47,85.968,33.864L85.968,33.864z"/>
	<path style="fill:#FFFFFF;" d="M83.556,60.759c-0.53,0.176-1.074,0.345-1.629,0.51c-1.228-3.886-2.885-8.019-4.912-12.288
		c1.935-4.168,3.527-8.247,4.721-12.109c0.992,0.288,1.955,0.59,2.883,0.91C93.596,40.872,99.07,45.44,99.07,48.96
		C99.07,52.71,93.157,57.578,83.556,60.759L83.556,60.759z M79.573,68.653c0.971,4.903,1.109,9.336,0.466,12.801
		c-0.578,3.114-1.739,5.19-3.176,6.021c-3.057,1.769-9.594-0.531-16.643-6.597c-0.808-0.695-1.623-1.438-2.439-2.224
		c2.733-2.989,5.464-6.465,8.13-10.324c4.689-0.416,9.119-1.096,13.137-2.025C79.245,67.105,79.421,67.887,79.573,68.653
		L79.573,68.653z M39.287,87.17c-2.986,1.055-5.365,1.085-6.802,0.256c-3.06-1.764-4.331-8.577-2.597-17.713
		c0.206-1.08,0.442-2.154,0.708-3.22c3.973,0.879,8.371,1.511,13.071,1.892c2.683,3.776,5.494,7.247,8.326,10.287
		c-0.602,0.582-1.218,1.15-1.848,1.702C46.382,83.662,42.611,85.996,39.287,87.17L39.287,87.17z M25.296,60.736
		c-4.73-1.617-8.635-3.717-11.313-6.01c-2.406-2.06-3.62-4.106-3.62-5.766c0-3.532,5.266-8.037,14.048-11.099
		c1.102-0.383,2.216-0.733,3.338-1.05c1.214,3.948,2.806,8.076,4.727,12.25c-1.946,4.236-3.561,8.43-4.786,12.424
		C26.886,61.255,26.088,61.005,25.296,60.736z M29.986,28.812c-1.823-9.316-0.613-16.344,2.434-18.107
		c3.245-1.878,10.42,0.8,17.983,7.515c0.483,0.429,0.969,0.879,1.455,1.344c-2.818,3.026-5.602,6.471-8.262,10.225
		c-4.562,0.423-8.929,1.102-12.943,2.012C30.405,30.809,30.183,29.813,29.986,28.812L29.986,28.812z M71.825,39.143
		c-0.948-1.638-1.932-3.255-2.949-4.851c3.095,0.391,6.06,0.91,8.844,1.546c-0.836,2.679-1.878,5.48-3.104,8.352
		C73.719,42.489,72.788,40.806,71.825,39.143L71.825,39.143z M54.763,22.524c1.911,2.07,3.825,4.382,5.708,6.89
		c-3.819-0.18-7.645-0.181-11.464-0.003C50.891,26.927,52.822,24.619,54.763,22.524L54.763,22.524z M37.592,39.171
		c-0.952,1.65-1.864,3.323-2.738,5.016c-1.207-2.862-2.239-5.676-3.082-8.393c2.767-0.619,5.719-1.126,8.793-1.51
		C39.536,35.89,38.544,37.519,37.592,39.171z M40.654,63.932c-3.177-0.355-6.172-0.835-8.939-1.437
		c0.856-2.765,1.911-5.64,3.144-8.563c0.877,1.694,1.794,3.368,2.75,5.019C38.584,60.635,39.599,62.296,40.654,63.932z
		 M54.878,75.689c-1.964-2.119-3.923-4.463-5.836-6.984c1.857,0.073,3.75,0.11,5.675,0.11c1.977,0,3.932-0.044,5.855-0.13
		C58.683,71.252,56.776,73.599,54.878,75.689z M74.654,53.783c1.296,2.955,2.389,5.814,3.257,8.532
		c-2.813,0.642-5.849,1.159-9.048,1.542c1.025-1.625,2.018-3.271,2.978-4.936C72.817,57.23,73.755,55.517,74.654,53.783
		L74.654,53.783z M68.252,56.852c-1.469,2.552-3.021,5.056-4.653,7.508c-2.878,0.206-5.852,0.312-8.882,0.312
		c-3.018,0-5.954-0.094-8.782-0.277c-1.674-2.446-3.256-4.954-4.74-7.519c-1.478-2.552-2.858-5.159-4.138-7.815
		c1.277-2.657,2.653-5.266,4.126-7.819v0.001c1.472-2.554,3.041-5.052,4.703-7.487c2.885-0.218,5.842-0.332,8.832-0.332
		c3.003,0,5.965,0.115,8.848,0.335c1.645,2.432,3.204,4.92,4.673,7.462c1.478,2.548,2.872,5.144,4.181,7.782
		C71.125,51.667,69.734,54.286,68.252,56.852L68.252,56.852z M76.8,10.581c3.248,1.873,4.511,9.427,2.47,19.333
		c-0.134,0.645-0.279,1.288-0.436,1.928c-4.024-0.928-8.394-1.62-12.969-2.049c-2.665-3.795-5.427-7.246-8.199-10.233
		c0.726-0.7,1.47-1.382,2.23-2.046C67.058,11.283,73.75,8.823,76.8,10.581L76.8,10.581z"/>
	<path style="fill:#54C1DE;" d="M54.717,40.299c4.784,0,8.661,3.878,8.661,8.661c0,4.784-3.878,8.662-8.661,8.662
		c-4.783,0-8.661-3.878-8.661-8.662C46.055,44.177,49.933,40.299,54.717,40.299"/>
</g>
</svg>
