<?xml version="1.0" encoding="iso-8859-1"?>
<!-- Generator: Adobe Illustrator 22.0.1, SVG Export Plug-In . SVG Version: 6.00 Build 0)  -->
<!DOCTYPE svg PUBLIC "-//W3C//DTD SVG 1.1//EN" "http://www.w3.org/Graphics/SVG/1.1/DTD/svg11.dtd">
<svg version="1.1" id="Layer_1" xmlns="http://www.w3.org/2000/svg" xmlns:xlink="http://www.w3.org/1999/xlink" x="0px" y="0px"
	 viewBox="0 0 213.866 29.669" style="enable-background:new 0 0 213.866 29.669;" xml:space="preserve">
<g>
	<path style="fill:#11323F;" d="M8.628,9.322c0.312-0.671,0.709-1.168,1.191-1.49s1.073-0.482,1.773-0.482
		c1.372,0,2.32,0.473,2.845,1.419c0.525,0.946,0.788,2.914,0.788,5.902v8.954H11.82V13.423c0-1.182-0.09-1.972-0.27-2.37
		c-0.18-0.397-0.507-0.596-0.979-0.596s-0.804,0.204-0.993,0.61c-0.189,0.407-0.284,1.192-0.284,2.355v10.202H5.932V13.423
		c0-1.164-0.095-1.948-0.284-2.355c-0.189-0.406-0.521-0.61-0.993-0.61s-0.799,0.199-0.979,0.596c-0.18,0.397-0.27,1.188-0.27,2.37
		v10.202H0V7.733h3.022v1.646c0.236-0.624,0.615-1.118,1.136-1.482C4.678,7.532,5.26,7.35,5.903,7.35
		c0.643,0,1.229,0.191,1.759,0.575C8.192,8.308,8.514,8.774,8.628,9.322z"/>
	<path style="fill:#11323F;" d="M18.887,7.733h8.229v12.7h5.165v3.192H17.78v-3.192h5.179v-9.507h-4.072V7.733z M22.959,0h4.157
		v4.853h-4.157V0z"/>
	<path style="fill:#11323F;" d="M47.861,13.31v10.315h-4.129v-9.677c0-1.154-0.163-1.979-0.489-2.476
		c-0.326-0.497-0.858-0.745-1.597-0.745c-0.747,0-1.336,0.336-1.767,1.007c-0.431,0.672-0.646,1.604-0.646,2.795v9.095h-4.129V7.733
		h4.129v2.384c0.293-0.879,0.795-1.561,1.504-2.043c0.71-0.482,1.565-0.724,2.568-0.724c1.504,0,2.64,0.499,3.405,1.497
		C47.479,9.845,47.861,11.333,47.861,13.31z"/>
	<path style="fill:#11323F;" d="M64.775,13.31v10.315h-4.129v-9.677c0-1.154-0.163-1.979-0.489-2.476
		c-0.326-0.497-0.858-0.745-1.597-0.745c-0.747,0-1.336,0.336-1.767,1.007c-0.431,0.672-0.646,1.604-0.646,2.795v9.095H52.02V7.733
		h4.129v2.384c0.293-0.879,0.795-1.561,1.504-2.043c0.71-0.482,1.565-0.724,2.568-0.724c1.504,0,2.64,0.499,3.405,1.497
		C64.393,9.845,64.775,11.333,64.775,13.31z"/>
	<path style="fill:#11323F;" d="M76.582,25.342c-0.559,1.495-1.228,2.585-2.008,3.271c-0.78,0.686-1.729,1.029-2.846,1.029h-3.434
		v-3.164h1.688c0.852,0,1.476-0.145,1.873-0.433c0.397-0.289,0.8-0.958,1.206-2.008l0.312-0.852L67.33,7.733h4.37l3.633,10.316
		L78.81,7.733h4.37L76.582,25.342z"/>
	<path style="fill:#30A1DB;" d="M90.644,14.331c-2.109-0.804-3.538-1.648-4.285-2.533c-0.747-0.884-1.121-2.074-1.121-3.569
		c0-1.92,0.615-3.429,1.845-4.526C88.312,2.606,90,2.058,92.147,2.058c0.975,0,1.949,0.111,2.923,0.333
		c0.975,0.223,1.939,0.551,2.896,0.986v4.086c-0.899-0.633-1.812-1.116-2.739-1.447C94.3,5.685,93.382,5.52,92.475,5.52
		c-1.013,0-1.788,0.204-2.327,0.61c-0.54,0.407-0.81,0.988-0.81,1.745c0,0.586,0.196,1.071,0.589,1.455
		c0.393,0.383,1.214,0.806,2.462,1.27l1.803,0.681c1.702,0.625,2.956,1.452,3.76,2.483c0.804,1.031,1.206,2.332,1.206,3.902
		c0,2.138-0.632,3.734-1.895,4.789s-3.171,1.582-5.725,1.582c-1.051,0-2.103-0.125-3.157-0.376c-1.056-0.25-2.074-0.622-3.058-1.114
		v-4.328c1.115,0.795,2.196,1.386,3.242,1.774c1.045,0.388,2.078,0.582,3.1,0.582c1.031,0,1.831-0.234,2.398-0.702
		s0.852-1.123,0.852-1.965c0-0.634-0.189-1.189-0.568-1.667c-0.378-0.478-0.927-0.854-1.646-1.128L90.644,14.331z"/>
	<path style="fill:#30A1DB;" d="M115.376,22.816c-0.7,0.407-1.452,0.712-2.256,0.915c-0.805,0.203-1.67,0.305-2.597,0.305
		c-2.45,0-4.366-0.738-5.747-2.214c-1.381-1.476-2.071-3.519-2.071-6.129c0-2.62,0.695-4.67,2.086-6.151
		c1.391-1.48,3.311-2.22,5.761-2.22c0.852,0,1.672,0.099,2.462,0.298s1.577,0.506,2.362,0.922v3.803
		c-0.605-0.52-1.27-0.92-1.993-1.199c-0.724-0.279-1.474-0.418-2.249-0.418c-1.354,0-2.394,0.431-3.122,1.291
		c-0.729,0.861-1.093,2.086-1.093,3.675c0,1.589,0.364,2.81,1.093,3.661c0.729,0.852,1.769,1.277,3.122,1.277
		c0.804,0,1.556-0.135,2.256-0.404s1.362-0.679,1.986-1.227V22.816z"/>
	<path style="fill:#30A1DB;" d="M133.567,12.118c-0.454-0.416-0.986-0.729-1.597-0.937s-1.279-0.312-2.008-0.312
		c-0.88,0-1.648,0.154-2.306,0.461c-0.657,0.308-1.166,0.754-1.525,1.341c-0.227,0.36-0.386,0.794-0.476,1.306
		c-0.09,0.511-0.135,1.286-0.135,2.327v7.322h-4.157V7.733h4.157v2.469c0.407-0.908,1.031-1.611,1.873-2.107
		s1.826-0.745,2.951-0.745c0.568,0,1.124,0.069,1.668,0.206c0.544,0.137,1.062,0.338,1.554,0.603V12.118z"/>
	<path style="fill:#30A1DB;" d="M137.285,7.733h8.229v12.7h5.165v3.192h-14.501v-3.192h5.179v-9.507h-4.072V7.733z M141.357,0h4.157
		v4.853h-4.157V0z"/>
	<path style="fill:#30A1DB;" d="M157.335,21.383v8.286h-4.144V7.733h4.144v2.384c0.436-0.917,1.008-1.608,1.717-2.071
		c0.71-0.463,1.542-0.695,2.497-0.695c1.816,0,3.226,0.729,4.229,2.185c1.003,1.457,1.504,3.51,1.504,6.158
		c0,2.687-0.508,4.749-1.524,6.187c-1.018,1.438-2.467,2.157-4.35,2.157c-0.852,0-1.615-0.22-2.291-0.66
		C158.439,22.937,157.846,22.272,157.335,21.383z M163.124,15.665c0-1.533-0.255-2.734-0.766-3.604
		c-0.511-0.871-1.216-1.306-2.114-1.306c-0.899,0-1.608,0.435-2.129,1.306c-0.521,0.87-0.78,2.071-0.78,3.604
		c0,1.532,0.26,2.734,0.78,3.604s1.229,1.305,2.129,1.305c0.898,0,1.604-0.435,2.114-1.305S163.124,17.197,163.124,15.665z"/>
	<path style="fill:#30A1DB;" d="M177.769,3.221v4.512h5.434v3.193h-5.434v7.52c0,0.709,0.172,1.218,0.518,1.525
		c0.345,0.308,0.92,0.461,1.724,0.461h3.192v3.192h-3.49c-2.384,0-3.997-0.381-4.839-1.142c-0.842-0.762-1.263-2.173-1.263-4.236
		v-7.321h-4.058V7.733h4.058V3.221H177.769z"/>
	<path style="fill:#11323F;" d="M198.002,1.546c-1.248,2.265-2.176,4.458-2.78,6.581c-0.605,2.123-0.908,4.245-0.908,6.367
		c0,2.104,0.303,4.224,0.908,6.36c0.604,2.137,1.532,4.342,2.78,6.616h-3.234c-1.504-2.188-2.621-4.347-3.349-6.474
		c-0.729-2.127-1.093-4.294-1.093-6.502c0-2.198,0.366-4.366,1.1-6.502c0.732-2.137,1.847-4.285,3.342-6.446H198.002z"/>
	<path style="fill:#11323F;" d="M206.19,1.546h3.234c1.495,2.161,2.608,4.309,3.342,6.446c0.733,2.136,1.1,4.304,1.1,6.502
		c0,2.208-0.364,4.375-1.093,6.502s-1.844,4.285-3.349,6.474h-3.234c1.248-2.274,2.176-4.479,2.781-6.616
		c0.604-2.137,0.907-4.257,0.907-6.36c0-2.122-0.303-4.245-0.907-6.367C208.366,6.005,207.438,3.811,206.19,1.546z"/>
</g>
</svg>
